<svg version="1.1"
      baseProfile="full"
      width="250" height="250"
      xmlns="http://www.w3.org/2000/svg"><rect x="0" y="0" width="50" height="50" fill="rgb(176,144,250)" /><rect x="50" y="0" width="50" height="50" fill="rgb(176,144,250)" /><rect x="100" y="0" width="50" height="50" fill="rgb(176,144,250)" /><rect x="150" y="0" width="50" height="50" fill="rgb(176,144,250)" /><rect x="200" y="0" width="50" height="50" fill="rgb(176,144,250)" /><rect x="0" y="50" width="50" height="50" fill="rgb(176,144,250)" /><rect x="200" y="50" width="50" height="50" fill="rgb(176,144,250)" /><rect x="50" y="100" width="50" height="50" fill="rgb(176,144,250)" /><rect x="100" y="100" width="50" height="50" fill="rgb(176,144,250)" /><rect x="150" y="100" width="50" height="50" fill="rgb(176,144,250)" /><rect x="0" y="150" width="50" height="50" fill="rgb(176,144,250)" /><rect x="50" y="150" width="50" height="50" fill="rgb(176,144,250)" /><rect x="150" y="150" width="50" height="50" fill="rgb(176,144,250)" /><rect x="200" y="150" width="50" height="50" fill="rgb(176,144,250)" /><rect x="100" y="200" width="50" height="50" fill="rgb(176,144,250)" /><rect x="0" y="250" width="50" height="50" fill="rgb(176,144,250)" /><rect x="50" y="250" width="50" height="50" fill="rgb(176,144,250)" /><rect x="150" y="250" width="50" height="50" fill="rgb(176,144,250)" /><rect x="200" y="250" width="50" height="50" fill="rgb(176,144,250)" /><rect x="0" y="300" width="50" height="50" fill="rgb(176,144,250)" /><rect x="50" y="300" width="50" height="50" fill="rgb(176,144,250)" /><rect x="100" y="300" width="50" height="50" fill="rgb(176,144,250)" /><rect x="150" y="300" width="50" height="50" fill="rgb(176,144,250)" /><rect x="200" y="300" width="50" height="50" fill="rgb(176,144,250)" /><rect x="50" y="350" width="50" height="50" fill="rgb(176,144,250)" /><rect x="100" y="350" width="50" height="50" fill="rgb(176,144,250)" /><rect x="150" y="350" width="50" height="50" fill="rgb(176,144,250)" /><rect x="0" y="400" width="50" height="50" fill="rgb(176,144,250)" /><rect x="200" y="400" width="50" height="50" fill="rgb(176,144,250)" /><rect x="50" y="450" width="50" height="50" fill="rgb(176,144,250)" /><rect x="150" y="450" width="50" height="50" fill="rgb(176,144,250)" /><rect x="100" y="500" width="50" height="50" fill="rgb(176,144,250)" /><rect x="0" y="550" width="50" height="50" fill="rgb(176,144,250)" /><rect x="100" y="550" width="50" height="50" fill="rgb(176,144,250)" /><rect x="200" y="550" width="50" height="50" fill="rgb(176,144,250)" /><rect x="0" y="600" width="50" height="50" fill="rgb(176,144,250)" /><rect x="200" y="600" width="50" height="50" fill="rgb(176,144,250)" /><rect x="100" y="650" width="50" height="50" fill="rgb(176,144,250)" /><rect x="0" y="750" width="50" height="50" fill="rgb(176,144,250)" /><rect x="50" y="750" width="50" height="50" fill="rgb(176,144,250)" /><rect x="150" y="750" width="50" height="50" fill="rgb(176,144,250)" /><rect x="200" y="750" width="50" height="50" fill="rgb(176,144,250)" /><rect x="50" y="850" width="50" height="50" fill="rgb(176,144,250)" /><rect x="150" y="850" width="50" height="50" fill="rgb(176,144,250)" /><rect x="0" y="900" width="50" height="50" fill="rgb(176,144,250)" /><rect x="50" y="900" width="50" height="50" fill="rgb(176,144,250)" /><rect x="100" y="900" width="50" height="50" fill="rgb(176,144,250)" /><rect x="150" y="900" width="50" height="50" fill="rgb(176,144,250)" /><rect x="200" y="900" width="50" height="50" fill="rgb(176,144,250)" /><rect x="0" y="950" width="50" height="50" fill="rgb(176,144,250)" /><rect x="100" y="950" width="50" height="50" fill="rgb(176,144,250)" /><rect x="200" y="950" width="50" height="50" fill="rgb(176,144,250)" /><rect x="0" y="1000" width="50" height="50" fill="rgb(176,144,250)" /><rect x="50" y="1000" width="50" height="50" fill="rgb(176,144,250)" /><rect x="100" y="1000" width="50" height="50" fill="rgb(176,144,250)" /><rect x="150" y="1000" width="50" height="50" fill="rgb(176,144,250)" /><rect x="200" y="1000" width="50" height="50" fill="rgb(176,144,250)" /></svg>